<svg width="200" height="40" viewBox="0 0 200 40" fill="none" xmlns="http://www.w3.org/2000/svg">
<path d="M170.967 14V23.7782C170.967 25.9211 171.978 26.9925 174 26.9925C176.022 26.9925 177.033 25.9211 177.033 23.7782V14H183V24.9624C183 27.3083 182.242 29.0677 180.725 30.2406C179.231 31.4135 176.989 32 174 32C171.011 32 168.758 31.4135 167.242 30.2406C165.747 29.0677 165 27.3083 165 24.9624V14H170.967Z" fill="white"/>
<path d="M149.299 14V23.7782C149.299 25.9211 150.366 26.9925 152.5 26.9925C154.634 26.9925 155.701 25.9211 155.701 23.7782V14H162V24.9624C162 27.3083 161.2 29.0677 159.599 30.2406C158.021 31.4135 155.655 32 152.5 32C149.345 32 146.967 31.4135 145.366 30.2406C143.789 29.0677 143 27.3083 143 24.9624V14H149.299Z" fill="white"/>
<path d="M127.967 14V23.7782C127.967 25.9211 128.978 26.9925 131 26.9925C133.022 26.9925 134.033 25.9211 134.033 23.7782V14H140V24.9624C140 27.3083 139.242 29.0677 137.725 30.2406C136.231 31.4135 133.989 32 131 32C128.011 32 125.758 31.4135 124.242 30.2406C122.747 29.0677 122 27.3083 122 24.9624V14H127.967Z" fill="white"/>
<path d="M106.967 14V23.7782C106.967 25.9211 107.978 26.9925 110 26.9925C112.022 26.9925 113.033 25.9211 113.033 23.7782V14H119V24.9624C119 27.3083 118.242 29.0677 116.725 30.2406C115.231 31.4135 112.989 32 110 32C107.011 32 104.758 31.4135 103.242 30.2406C101.747 29.0677 101 27.3083 101 24.9624V14H106.967Z" fill="white"/>
<path d="M67.6138 8.39587H74.2122L76.5908 21.3616L80.0588 8.39587H86.6419L90.1253 21.3616L92.5038 8.39587H99.0716L94.115 31.6043H87.3017L83.358 16.9922L79.4296 31.6043H72.6163L67.6138 8.39587Z" fill="white"/>
<path d="M48.7698 8.39587H55.0306V31.6043H48.7698V8.39587Z" fill="white"/>
<path d="M38.3044 8.39587H44.5653V31.6043H38.3044V8.39587Z" fill="white"/>
<path d="M27.8542 8.39587H34.0998V12.7811H27.8542V8.39587ZM27.8542 14.7917H34.0998V31.6043H27.8542V14.7917Z" fill="white"/>
<path d="M13.1688 23.1979V18.3694H23.9105V28.2639C21.8542 29.7098 20.0332 30.6966 18.4476 31.2243C16.8721 31.7414 15 32 12.8312 32C10.1611 32 7.9821 31.5303 6.29412 30.591C4.61637 29.6517 3.31202 28.2533 2.38107 26.3958C1.46036 24.5383 1 22.4063 1 20C1 17.467 1.50639 15.2665 2.51918 13.3984C3.53197 11.5198 5.01535 10.095 6.96931 9.12401C8.49361 8.37467 10.5448 8 13.1228 8C15.6087 8 17.4655 8.23219 18.6931 8.69657C19.9309 9.16095 20.954 9.88391 21.7621 10.8654C22.5806 11.8364 23.1944 13.0712 23.6036 14.5699L16.8977 15.8047C16.6215 14.9288 16.1509 14.2586 15.4859 13.7942C14.8312 13.3298 13.9923 13.0976 12.9693 13.0976C11.445 13.0976 10.2276 13.6464 9.31714 14.7441C8.41688 15.8311 7.96675 17.5567 7.96675 19.9208C7.96675 22.4327 8.422 24.2269 9.33248 25.3034C10.2532 26.3799 11.532 26.9182 13.1688 26.9182C13.9463 26.9182 14.688 26.8021 15.3939 26.5699C16.0997 26.3377 16.9079 25.942 17.8184 25.3826V23.1979H13.1688Z" fill="white"/>
<rect x="191.531" y="8.29688" width="8" height="8" fill="#0BAA4F"/>
</svg>
